<svg width="770" height="151" viewBox="0 0 770 151" xmlns="http://www.w3.org/2000/svg"><g fill="#000" fill-rule="nonzero"><path d="M214.54 48.24c3.925 0 7.435.736 10.528 2.208 3.093 1.472 5.61 3.552 7.552 6.24 1.941 2.688 3.232 5.824 3.872 9.408h-14.976c-.683-1.493-1.653-2.656-2.912-3.488-1.259-.832-2.699-1.248-4.32-1.248-2.39 0-4.277.896-5.664 2.688-1.387 1.792-2.08 4.203-2.08 7.232 0 3.03.693 5.44 2.08 7.232 1.387 1.792 3.275 2.688 5.664 2.688 1.621 0 3.061-.416 4.32-1.248 1.259-.832 2.23-1.995 2.912-3.488h14.976c-.64 3.584-1.93 6.72-3.872 9.408-1.941 2.688-4.459 4.768-7.552 6.24-3.093 1.472-6.603 2.208-10.528 2.208-4.565 0-8.533-.97-11.904-2.912-3.37-1.941-5.963-4.661-7.776-8.16-1.813-3.499-2.72-7.488-2.72-11.968 0-4.48.907-8.47 2.72-11.968 1.813-3.499 4.405-6.219 7.776-8.16 3.37-1.941 7.339-2.912 11.904-2.912zm61.248 38.912h-15.104L258.444 94h-14.912l16.576-45.312h16.384L293.004 94h-14.976l-2.24-6.848zm-3.456-10.688l-4.096-12.608-4.096 12.608h8.192zm43.2 6.784h13.696V94h-27.904V48.688h14.208v34.56zm35.2-34.56l9.344 31.168 9.28-31.168h15.104L369.228 94H350.86l-15.232-45.312h15.104zm56.256 0V94H392.78V48.688h14.208zM461.964 94h-14.208l-15.04-22.784V94h-14.208V48.688h14.208l15.04 23.168V48.688h14.208V94zm55.232-23.296L533.964 94h-17.088l-13.184-19.648V94h-14.208V48.688h14.208v19.136l13.312-19.136h16.96l-16.768 22.016zm47.808-22.784c4.267 0 8.17.992 11.712 2.976 3.541 1.984 6.347 4.747 8.416 8.288 2.07 3.541 3.104 7.53 3.104 11.968 0 4.437-1.035 8.427-3.104 11.968-2.07 3.541-4.885 6.315-8.448 8.32-3.563 2.005-7.456 3.008-11.68 3.008-4.267 0-8.181-1.003-11.744-3.008-3.563-2.005-6.39-4.779-8.48-8.32-2.09-3.541-3.136-7.53-3.136-11.968 0-4.437 1.045-8.427 3.136-11.968 2.09-3.541 4.917-6.304 8.48-8.288 3.563-1.984 7.477-2.976 11.744-2.976zm0 13.12c-2.859 0-5.056.907-6.592 2.72-1.536 1.813-2.304 4.277-2.304 7.392 0 3.072.768 5.515 2.304 7.328 1.536 1.813 3.733 2.72 6.592 2.72 2.816 0 4.992-.907 6.528-2.72 1.536-1.813 2.304-4.256 2.304-7.328 0-3.115-.768-5.579-2.304-7.392-1.536-1.813-3.712-2.72-6.528-2.72zm47.68-1.088v5.632h14.08v10.688h-14.08v6.4h16V94h-30.208V48.688h30.208v11.264h-16zM653.388 79.6V94H639.18V48.688h19.84c5.547 0 9.803 1.408 12.768 4.224 2.965 2.816 4.448 6.592 4.448 11.328 0 2.859-.661 5.45-1.984 7.776-1.323 2.325-3.275 4.17-5.856 5.536-2.581 1.365-5.707 2.048-9.376 2.048h-5.632zm4.032-11.2c2.944 0 4.416-1.387 4.416-4.16s-1.472-4.16-4.416-4.16h-4.032v8.32h4.032zm56.128 2.304L730.316 94h-17.088l-13.184-19.648V94h-14.208V48.688h14.208v19.136l13.312-19.136h16.96l-16.768 22.016zm39.936-10.752v5.632h14.08v10.688h-14.08v6.4h16V94h-30.208V48.688h30.208v11.264h-16zM75 79.97c3.163-4.97 6.777-12.438 6.777-25.753 0-9.337-2.861-18.524-10.391-24.85-7.53-6.325-14.006-7.228-21.913-7.228-13.1 0-23.72 10.62-23.72 23.72S34.34 67.77 47.44 67.77c12.72 0 15.361-8.132 18.072-12.199 4.97 9.036 2.108 22.139-9.036 27.56-11.145 5.422-22.59 5.422-33.886 0C11.295 77.712 0 66.376 0 46.085 0 20.633 20.633 0 46.084 0c12.304 0 23.482 4.822 31.747 12.68 15.229 14.21 19.17 24.715 32.862 33.404C126.14 55.887 150 60.542 150 73.644c0 13.103-21.687 10.844-56.476 27.56-34.79 16.718-44.653 49.248-50.15 49.248-5.498 0 3.162-32.53 12.198-45.18C64.608 92.62 71.837 84.94 75 79.97z"/></g></svg>
