<?xml version="1.0" encoding="UTF-8"?>
<svg width="770px" height="151px" viewBox="0 0 770 151" version="1.1" xmlns="http://www.w3.org/2000/svg" xmlns:xlink="http://www.w3.org/1999/xlink">
    <!-- Generator: Sketch 53.2 (72643) - https://sketchapp.com -->
    <title>Logo Type - Dark</title>
    <desc>Created with Sketch.</desc>
    <g id="Page-1" stroke="none" stroke-width="1" fill="none" fill-rule="evenodd">
        <g id="-" transform="translate(-862.000000, -175.000000)" fill="#000000" fill-rule="nonzero">
            <g id="Logo-Type---Dark" transform="translate(862.000000, 175.000000)">
                <path d="M214.54,48.24 C218.465353,48.24 221.974651,48.9759926 225.068,50.448 C228.161349,51.9200074 230.678657,53.9999866 232.62,56.688 C234.561343,59.3760134 235.851997,62.5119821 236.492,66.096 L221.516,66.096 C220.83333,64.6026592 219.862673,63.4400042 218.604,62.608 C217.345327,61.7759958 215.905341,61.36 214.284,61.36 C211.894655,61.36 210.006674,62.255991 208.62,64.048 C207.233326,65.840009 206.54,68.2506515 206.54,71.28 C206.54,74.3093485 207.233326,76.719991 208.62,78.512 C210.006674,80.304009 211.894655,81.2 214.284,81.2 C215.905341,81.2 217.345327,80.7840042 218.604,79.952 C219.862673,79.1199958 220.83333,77.9573408 221.516,76.464 L236.492,76.464 C235.851997,80.0480179 234.561343,83.1839866 232.62,85.872 C230.678657,88.5600134 228.161349,90.6399926 225.068,92.112 C221.974651,93.5840074 218.465353,94.32 214.54,94.32 C209.974644,94.32 206.006684,93.349343 202.636,91.408 C199.265316,89.466657 196.673342,86.7466842 194.86,83.248 C193.046658,79.7493158 192.14,75.7600224 192.14,71.28 C192.14,66.7999776 193.046658,62.8106842 194.86,59.312 C196.673342,55.8133158 199.265316,53.093343 202.636,51.152 C206.006684,49.210657 209.974644,48.24 214.54,48.24 Z M275.788,87.152 L260.684,87.152 L258.444,94 L243.532,94 L260.108,48.688 L276.492,48.688 L293.004,94 L278.028,94 L275.788,87.152 Z M272.332,76.464 L268.236,63.856 L264.14,76.464 L272.332,76.464 Z M315.532,83.248 L329.228,83.248 L329.228,94 L301.324,94 L301.324,48.688 L315.532,48.688 L315.532,83.248 Z M350.732,48.688 L360.076,79.856 L369.356,48.688 L384.46,48.688 L369.228,94 L350.86,94 L335.628,48.688 L350.732,48.688 Z M406.988,48.688 L406.988,94 L392.78,94 L392.78,48.688 L406.988,48.688 Z M461.964,94 L447.756,94 L432.716,71.216 L432.716,94 L418.508,94 L418.508,48.688 L432.716,48.688 L447.756,71.856 L447.756,48.688 L461.964,48.688 L461.964,94 Z M517.196,70.704 L533.964,94 L516.876,94 L503.692,74.352 L503.692,94 L489.484,94 L489.484,48.688 L503.692,48.688 L503.692,67.824 L517.004,48.688 L533.964,48.688 L517.196,70.704 Z M565.004,47.92 C569.270688,47.92 573.174649,48.9119901 576.716,50.896 C580.257351,52.8800099 583.062656,55.642649 585.132,59.184 C587.201344,62.725351 588.236,66.7146445 588.236,71.152 C588.236,75.5893555 587.201344,79.578649 585.132,83.12 C583.062656,86.661351 580.246684,89.4346566 576.684,91.44 C573.121316,93.4453434 569.228021,94.448 565.004,94.448 C560.737312,94.448 556.822684,93.4453434 553.26,91.44 C549.697316,89.4346566 546.870677,86.661351 544.78,83.12 C542.689323,79.578649 541.644,75.5893555 541.644,71.152 C541.644,66.7146445 542.689323,62.725351 544.78,59.184 C546.870677,55.642649 549.697316,52.8800099 553.26,50.896 C556.822684,48.9119901 560.737312,47.92 565.004,47.92 Z M565.004,61.04 C562.145319,61.04 559.948008,61.9466576 558.412,63.76 C556.875992,65.5733424 556.108,68.0373178 556.108,71.152 C556.108,74.2240154 556.875992,76.6666576 558.412,78.48 C559.948008,80.2933424 562.145319,81.2 565.004,81.2 C567.820014,81.2 569.995992,80.2933424 571.532,78.48 C573.068008,76.6666576 573.836,74.2240154 573.836,71.152 C573.836,68.0373178 573.068008,65.5733424 571.532,63.76 C569.995992,61.9466576 567.820014,61.04 565.004,61.04 Z M612.684,59.952 L612.684,65.584 L626.764,65.584 L626.764,76.272 L612.684,76.272 L612.684,82.672 L628.684,82.672 L628.684,94 L598.476,94 L598.476,48.688 L628.684,48.688 L628.684,59.952 L612.684,59.952 Z M653.388,79.6 L653.388,94 L639.18,94 L639.18,48.688 L659.02,48.688 C664.566694,48.688 668.822652,50.0959859 671.788,52.912 C674.753348,55.7280141 676.236,59.5039763 676.236,64.24 C676.236,67.098681 675.574673,69.690655 674.252,72.016 C672.929327,74.341345 670.977346,76.1866598 668.396,77.552 C665.814654,78.9173402 662.689352,79.6 659.02,79.6 L653.388,79.6 Z M657.42,68.4 C660.364015,68.4 661.836,67.0133472 661.836,64.24 C661.836,61.4666528 660.364015,60.08 657.42,60.08 L653.388,60.08 L653.388,68.4 L657.42,68.4 Z M713.548,70.704 L730.316,94 L713.228,94 L700.044,74.352 L700.044,94 L685.836,94 L685.836,48.688 L700.044,48.688 L700.044,67.824 L713.356,48.688 L730.316,48.688 L713.548,70.704 Z M753.484,59.952 L753.484,65.584 L767.564,65.584 L767.564,76.272 L753.484,76.272 L753.484,82.672 L769.484,82.672 L769.484,94 L739.276,94 L739.276,48.688 L769.484,48.688 L769.484,59.952 L753.484,59.952 Z" id="CALVINKOEPKE"></path>
                <g id="Logo---Black">
                    <path d="M75,79.9698795 C78.1626506,75 81.7771084,67.5315223 81.7771084,54.2168675 C81.7771084,44.8795181 78.9156627,35.6927711 71.3855422,29.3674699 C63.8554217,23.0421687 57.3795181,22.1385542 49.4728916,22.1385542 C36.3727638,22.1385542 25.753012,32.758306 25.753012,45.8584337 C25.753012,58.9585615 34.3396313,67.7710843 47.439759,67.7710843 C60.1591826,67.7710843 62.8012048,59.6385542 65.5120482,55.5722892 C70.4819277,64.6084337 67.6204819,77.7108434 56.4759036,83.1325301 C45.3313253,88.5542169 33.8855422,88.5542169 22.5903614,83.1325301 C11.2951807,77.7108434 0,66.3746814 0,46.0843373 C0,20.6326606 20.6326606,0 46.0843373,0 C58.3884017,0 69.5662473,4.82191583 77.831269,12.6791424 C93.0599782,26.8895482 97.0002282,37.3952093 110.692771,46.0843373 C126.140658,55.8873864 150,60.5421687 150,73.6445783 C150,86.746988 128.313253,84.4879518 93.5240964,101.204819 C58.7349398,117.921687 48.870629,150.451807 43.373494,150.451807 C37.876359,150.451807 46.5361446,117.921687 55.5722892,105.271084 C64.6084337,92.6204819 71.8373494,84.939759 75,79.9698795 Z" id="Combined-Shape"></path>
                </g>
            </g>
        </g>
    </g>
</svg>