<?xml version="1.0" encoding="UTF-8"?>
<svg width="308px" height="308px" viewBox="0 0 308 308" version="1.1" xmlns="http://www.w3.org/2000/svg" xmlns:xlink="http://www.w3.org/1999/xlink">
    <!-- Generator: Sketch 53.2 (72643) - https://sketchapp.com -->
    <title>Logo</title>
    <desc>Created with Sketch.</desc>
    <g id="Page-1" stroke="none" stroke-width="1" fill="none" fill-rule="evenodd">
        <g id="-" transform="translate(-97.000000, -597.000000)" fill="#000000" fill-rule="nonzero">
            <g id="Logo-Mark---Dark" transform="translate(0.000000, 500.000000)">
                <g id="Logo---Black" transform="translate(97.000000, 97.000000)">
                    <path d="M154,163.646972 C160.493976,153.476821 167.915663,138.193645 167.915663,110.9471 C167.915663,91.8395436 162.040161,73.0401739 146.578313,60.0963456 C131.116466,47.1525174 117.819277,45.303399 101.584337,45.303399 C74.6854084,45.303399 52.8795181,67.035209 52.8795181,93.8427551 C52.8795181,120.650301 70.5107096,138.683875 97.4096386,138.683875 C123.526855,138.683875 128.951807,122.04181 134.518072,113.720777 C144.722892,132.21196 138.84739,159.024176 115.963855,170.118886 C93.0803213,181.213596 69.5783133,181.213596 46.3855422,170.118886 C23.1927711,159.024176 0,135.826335 0,94.3050347 C0,42.2218022 42.3657298,0 94.626506,0 C119.890851,0 142.842694,9.86736418 159.813539,25.9460597 C191.083155,55.0256317 199.173802,76.5239714 227.289157,94.3050347 C259.008818,114.365579 308,123.890928 308,150.703144 C308,177.515359 263.46988,172.892564 192.036145,207.101253 C120.60241,241.309942 100.347692,307.878202 89.060241,307.878202 C77.7727904,307.878202 95.5542169,241.309942 114.108434,215.422285 C132.662651,189.534629 147.506024,173.817123 154,163.646972 Z" id="Combined-Shape"></path>
                </g>
            </g>
        </g>
    </g>
</svg>