<svg width="308" height="308" xmlns="http://www.w3.org/2000/svg"><path d="M154 163.647c6.494-10.17 13.916-25.453 13.916-52.7 0-19.107-5.876-37.907-21.338-50.85-15.462-12.944-28.759-14.794-44.994-14.794-26.899 0-48.704 21.732-48.704 48.54 0 26.807 17.63 44.84 44.53 44.84 26.117 0 31.542-16.641 37.108-24.962 10.205 18.491 4.33 45.303-18.554 56.398-22.884 11.095-46.386 11.095-69.578 0C23.193 159.024 0 135.826 0 94.305 0 42.222 42.366 0 94.627 0c25.264 0 48.216 9.867 65.187 25.946 31.27 29.08 39.36 50.578 67.475 68.359C259.01 114.365 308 123.891 308 150.703c0 26.812-44.53 22.19-115.964 56.398-71.434 34.209-91.688 100.777-102.976 100.777-11.287 0 6.494-66.568 25.048-92.456 18.555-25.887 33.398-41.605 39.892-51.775z" fill="#000" fill-rule="nonzero"/></svg>